Genre:Comedy | Drama | Fantasy 
Language:English
IMDb:http://www.imdb.com/title/tt1179794/
Source:DVD9 R5
Subtitles:Romana


Format : AVI
Format/Info : Audio Video Interleave
File size : 969 MiB
Duration : 1h 40mn
Overall bit rate : 1 355 Kbps

Video
Codec ID/Hint : XviD
Duration : 1h 40mn
Bit rate : 898 Kbps
Width : 720 pixels
Height : 384 pixels
Display aspect ratio : 1.875
Frame rate : 23.976 fps
Color space : YUV
Chroma subsampling : 4:2:0
Bit depth : 8 bits
Scan type : Progressive
Bits/(Pixel*Frame) : 0.135
Stream size : 642 MiB (66%)
Writing library : XviD 1.2.1 (UTC 2008-12-04)

Audio
ID : 1
Format : AC-3
Format/Info : Audio Coding 3
Mode extension : CM (complete main)
Codec ID : 2000
Duration : 1h 40mn
Bit rate mode : Constant
Bit rate : 448 Kbps
Channel(s) : 6 channels
Channel positions : Front: L C R, Side: L R, LFE
Sampling rate : 48.0 KHz
Bit depth : 16 bits
Stream size : 320 MiB (33%)
Alignment : Aligned on interleaves
Interleave, duration : 42 ms (1.00 video frame)



Plot:
If a clock could count down to the moment you meet your soul mate, would you want to know?




================================== 
http://thepiratebay.org/user/hiest
==================================





Screen Shots:
 
http://rapidhdd.com/images/524005vlcsnap-2010-12-15-19h16m56s135.png
 
http://www.rapidhdd.com/images/784635vlcsnap-2010-12-15-19h17m00s173.png
 
http://www.rapidhdd.com/images/967802vlcsnap-2010-12-15-19h17m53s198.png
 
http://www.rapidhdd.com/images/42166vlcsnap-2010-12-15-19h18m09s101.png
 
http://www.rapidhdd.com/images/898937vlcsnap-2010-12-15-19h17m39s48.png